<?xml version="1.0" encoding="UTF-8"?>
<svg id="_图层_1" data-name="图层 1" xmlns="http://www.w3.org/2000/svg" viewBox="0 0 16.3 18.43">
  <defs>
    <style>
      .cls-1 {
        fill: #414040;
      }
    </style>
  </defs>
  <path class="cls-1" d="m12.51,18.43c-.08,0-.16-.01-.24-.04-.17-.06-.31-.19-.39-.36-.08-.17-.08-.35-.02-.53.37-1,.6-2.05.68-3.12l-11.84-.07s-.09,0-.13-.01c-.05,0-.09-.02-.13-.04-.05-.02-.09-.04-.12-.06-.05-.03-.08-.06-.11-.09-.03-.03-.06-.07-.09-.11-.03-.04-.05-.08-.06-.12-.02-.05-.03-.09-.04-.13-.01-.06-.01-.11-.01-.13,0-.04,0-.09.01-.13,0-.04.02-.09.04-.13.02-.05.04-.09.06-.12.03-.05.06-.08.09-.11L8.47,4.86c-1.02-.94-2.16-1.61-3.41-2.06-.17-.06-.31-.19-.39-.36-.08-.17-.09-.35-.02-.53.06-.17.19-.31.36-.39.09-.04.19-.07.29-.07.08,0,.16.01.24.04,1.44.52,2.76,1.3,3.92,2.29L13.13.21c.14-.14.31-.21.49-.21.2,0,.37.08.5.21.13.13.2.31.19.49,0,.18-.08.36-.21.49L2.46,12.83l13.14.1c.38,0,.69.31.69.69,0,.18-.07.36-.2.49-.13.13-.3.2-.49.2h-1.63c-.14,1.29-.4,2.51-.83,3.67-.06.17-.19.31-.36.39-.09.04-.19.06-.29.06Z"/>
  <path class="cls-1" d="m12.84,11.08c-.31,0-.58-.21-.66-.5-.31-1.17-.81-2.28-1.48-3.3-.21-.32-.12-.75.2-.96.11-.07.24-.11.38-.11.05,0,.1,0,.14.01.18.04.34.14.44.3.75,1.14,1.31,2.38,1.66,3.7.09.37-.12.73-.48.84-.06.02-.12.03-.19.03Z"/>
</svg>