<?xml version="1.0" encoding="UTF-8"?>
<svg id="_图层_1" data-name="图层 1" xmlns="http://www.w3.org/2000/svg" viewBox="0 0 42.81 48.42">
  <defs>
    <style>
      .cls-1 {
        fill: #414040;
      }
    </style>
  </defs>
  <path class="cls-1" d="m32.85,48.42c-.22,0-.43-.04-.63-.12-.45-.17-.82-.5-1.02-.94-.2-.44-.22-.93-.05-1.39.97-2.63,1.57-5.39,1.78-8.2l-31.11-.18c-.11,0-.22-.01-.33-.03-.12-.02-.23-.05-.33-.09-.13-.05-.23-.1-.32-.17-.12-.08-.21-.16-.3-.24-.08-.08-.16-.18-.23-.28-.07-.11-.12-.21-.16-.31-.05-.12-.08-.23-.1-.34-.03-.15-.04-.28-.04-.35,0-.12.01-.22.03-.33.02-.12.05-.22.09-.33.05-.13.1-.23.16-.32.08-.12.16-.21.25-.3L22.26,12.77c-2.67-2.48-5.69-4.22-8.97-5.42-.45-.16-.82-.5-1.02-.94-.21-.44-.23-.93-.06-1.39.17-.45.5-.82.94-1.02.24-.11.5-.17.76-.17.21,0,.42.04.62.11,3.79,1.38,7.26,3.41,10.31,6.03L34.49.55c.37-.36.82-.55,1.3-.55.52,0,.97.21,1.3.55.34.35.52.81.51,1.29,0,.48-.2.94-.55,1.28L6.47,33.7l34.53.28c1,0,1.81.82,1.81,1.81,0,.48-.19.94-.53,1.28-.34.35-.8.53-1.28.53h-4.27c-.37,3.4-1.05,6.59-2.18,9.63-.17.45-.5.82-.94,1.02-.24.11-.5.17-.76.17Z"/>
  <path class="cls-1" d="m33.74,29.1c-.81,0-1.53-.54-1.74-1.32-.83-3.08-2.13-6-3.89-8.67-.55-.84-.32-1.97.52-2.51.29-.2.63-.3.99-.3.12,0,.25.01.37.04.48.1.88.38,1.15.78,1.97,2.99,3.43,6.26,4.35,9.72.25.96-.31,1.93-1.26,2.19-.16.04-.32.07-.49.07Z"/>
</svg>