<?xml version="1.0" encoding="UTF-8"?>
<svg id="_图层_1" data-name="图层 1" xmlns="http://www.w3.org/2000/svg" viewBox="0 0 32.6 36.87">
  <defs>
    <style>
      .cls-1 {
        fill: #414040;
      }
    </style>
  </defs>
  <path class="cls-1" d="m25.01,36.87c-.16,0-.33-.03-.48-.09-.35-.13-.62-.38-.77-.72-.15-.33-.17-.71-.04-1.06.74-2,1.2-4.1,1.35-6.24l-23.69-.13c-.08,0-.17,0-.25-.02-.09-.02-.17-.04-.25-.07-.1-.04-.17-.08-.24-.13-.09-.06-.16-.12-.23-.18-.06-.06-.12-.14-.17-.21-.05-.09-.09-.16-.13-.24-.04-.09-.06-.18-.08-.26-.02-.11-.03-.21-.03-.27,0-.09,0-.17.03-.25.01-.09.04-.17.07-.25.04-.1.08-.17.12-.24.06-.09.12-.16.19-.23L16.95,9.73c-2.03-1.89-4.33-3.22-6.83-4.13-.35-.12-.62-.38-.78-.71-.16-.33-.17-.71-.04-1.06.13-.35.38-.62.72-.78.19-.09.38-.13.58-.13.16,0,.32.03.47.09,2.88,1.05,5.52,2.59,7.85,4.59L26.26.42c.28-.27.62-.42.99-.42.4,0,.74.16.99.42.26.27.39.61.39.98,0,.37-.15.71-.42.97L4.93,25.66l26.29.21c.76,0,1.38.62,1.38,1.38,0,.37-.14.72-.4.98-.26.26-.61.41-.98.41h-3.25c-.28,2.59-.8,5.01-1.66,7.33-.13.35-.38.62-.72.77-.19.09-.38.13-.58.13Z"/>
  <path class="cls-1" d="m25.69,22.15c-.61,0-1.16-.41-1.33-1.01-.63-2.35-1.62-4.57-2.96-6.6-.42-.64-.24-1.5.4-1.91.22-.15.48-.23.75-.23.09,0,.19,0,.28.03.36.08.67.29.87.59,1.5,2.28,2.61,4.77,3.31,7.4.19.73-.23,1.47-.96,1.67-.12.03-.24.05-.38.05Z"/>
</svg>